<svg width="161" height="28" viewBox="0 0 161 28" fill="none" xmlns="http://www.w3.org/2000/svg">
<path fill-rule="evenodd" clip-rule="evenodd" d="M62.6764 19.2208C63.3851 18.5365 63.7402 17.6497 63.7402 16.5607C63.7402 15.4725 63.3851 14.5858 62.6764 13.9006C61.9669 13.2162 61.1584 12.8737 60.2515 12.8737C59.3109 12.8737 58.4823 13.212 57.7643 13.8888C57.0464 14.5648 56.6879 15.4557 56.6879 16.5607C56.6879 17.6665 57.0464 18.5566 57.7643 19.2334C58.4823 19.9095 59.3109 20.2477 60.2515 20.2477C61.1584 20.2477 61.9669 19.9052 62.6764 19.2208M64.9635 11.8964C66.2589 13.1088 66.9063 14.6638 66.9063 16.5606C66.9063 18.4583 66.2589 20.0126 64.9635 21.2251C63.6687 22.4376 62.0976 23.0438 60.2503 23.0438C58.3694 23.0438 56.7775 22.4376 55.4743 21.2251C54.1711 20.0126 53.5195 18.4583 53.5195 16.5606C53.5195 14.6638 54.1711 13.1088 55.4743 11.8964C56.7775 10.6839 58.3694 10.0776 60.2503 10.0776C62.0976 10.0776 63.6687 10.6839 64.9635 11.8964" fill="#2F2F96"></path>
<path fill-rule="evenodd" clip-rule="evenodd" d="M77.3748 19.2206C78.0844 18.5362 78.4386 17.6495 78.4386 16.5605C78.4386 15.4723 78.0844 14.5813 77.3748 13.8886C76.6653 13.1958 75.8491 12.8491 74.9253 12.8491C73.9188 12.8491 73.09 13.1874 72.4384 13.8634C71.7868 14.5402 71.4609 15.4387 71.4609 16.5605C71.4609 17.6824 71.7868 18.5774 72.4384 19.2456C73.09 19.9133 73.9188 20.2474 74.9253 20.2474C75.8491 20.2474 76.6653 19.9049 77.3748 19.2206V19.2206ZM81.7043 22.7222H78.4379V21.7573C77.333 22.6481 75.9718 23.0932 74.3555 23.0932C72.7224 23.0932 71.3033 22.4744 70.0993 21.2375C68.895 19.9999 68.293 18.4414 68.293 16.5605C68.293 14.6805 68.8992 13.1171 70.1119 11.8717C71.3242 10.6265 72.739 10.0034 74.3555 10.0034C75.9886 10.0034 77.3498 10.457 78.4379 11.3646V10.3747H81.7043V22.7222Z" fill="#2F2F96"></path>
<path fill-rule="evenodd" clip-rule="evenodd" d="M109.993 11.4514C110.9 12.4163 111.354 13.6657 111.354 15.2004V22.7225H108.087V15.8931C108.087 15.0183 107.861 14.3173 107.407 13.7898C106.954 13.2617 106.348 12.9982 105.589 12.9982C103.543 12.9982 102.52 14.4162 102.52 17.2536V22.7225H99.2539V4.90625H102.52V11.4884C103.509 10.4985 104.805 10.0038 106.405 10.0038C107.889 10.0038 109.086 10.4865 109.993 11.4514" fill="#2F2F96"></path>
<path fill-rule="evenodd" clip-rule="evenodd" d="M129.074 22.7225H125.709V15.4174H117.791V22.7225H114.426V4.90625H117.791V12.3736H125.709V4.90625H129.074V22.7225Z" fill="#2F2F96"></path>
<path fill-rule="evenodd" clip-rule="evenodd" d="M144.221 22.7225H140.954V21.609C139.965 22.599 138.67 23.0936 137.069 23.0936C135.585 23.0936 134.389 22.6108 133.482 21.6461C132.574 20.6812 132.121 19.4316 132.121 17.8976V10.375H135.387V17.204C135.387 18.0789 135.614 18.78 136.068 19.3075C136.521 19.8356 137.127 20.0993 137.886 20.0993C139.932 20.0993 140.954 18.6809 140.954 15.8437V10.375H144.221V22.7225Z" fill="#2F2F96"></path>
<path fill-rule="evenodd" clip-rule="evenodd" d="M156.856 19.2463C157.507 18.5779 157.833 17.6829 157.833 16.5611C157.833 15.4393 157.507 14.5407 156.856 13.864C156.204 13.1881 155.375 12.8496 154.369 12.8496C153.445 12.8496 152.629 13.1963 151.919 13.8891C151.21 14.5818 150.855 15.4728 150.855 16.5611C150.855 17.6501 151.21 18.5367 151.919 19.2212C152.629 19.9056 153.445 20.2481 154.369 20.2481C155.375 20.2481 156.204 19.914 156.856 19.2463M159.182 11.8722C160.395 13.1174 161.001 14.6808 161.001 16.561C161.001 18.4419 160.399 20.0002 159.195 21.2379C157.991 22.4749 156.572 23.0936 154.939 23.0936C153.322 23.0936 151.961 22.6486 150.856 21.7576V22.7225H147.59V4.90625H150.856V11.3651C151.945 10.4575 153.306 10.0039 154.939 10.0039C156.555 10.0039 157.97 10.6268 159.182 11.8722" fill="#2F2F96"></path>
<mask id="mask0_59:36" style="mask-type:alpha" maskUnits="userSpaceOnUse" x="0" y="0" width="13" height="28">
<path fill-rule="evenodd" clip-rule="evenodd" d="M0 0.598145H12.5148V27.4014H0V0.598145Z" fill="white"></path>
</mask>
<g mask="url(#mask0_59:36)">
<path fill-rule="evenodd" clip-rule="evenodd" d="M0 13.9997C0 21.1108 5.52451 26.9264 12.5148 27.4015V0.598145C5.52451 1.07319 0 6.88881 0 13.9997" fill="#FC5739"></path>
</g>
<mask id="mask1_59:36" style="mask-type:alpha" maskUnits="userSpaceOnUse" x="16" y="0" width="11" height="12">
<path fill-rule="evenodd" clip-rule="evenodd" d="M16.1172 0.598145H26.8121V11.9715H16.1172V0.598145Z" fill="white"></path>
</mask>
<g mask="url(#mask1_59:36)">
<path fill-rule="evenodd" clip-rule="evenodd" d="M16.1172 9.41975V0.598145C21.8371 1.75586 26.2388 6.09124 26.8121 11.9715L18.6115 11.9275C17.2317 11.9201 16.1172 10.7995 16.1172 9.41975" fill="#FC5739"></path>
</g>
<mask id="mask2_59:36" style="mask-type:alpha" maskUnits="userSpaceOnUse" x="16" y="16" width="11" height="12">
<path fill-rule="evenodd" clip-rule="evenodd" d="M16.1172 16.0283H26.8121V27.4016H16.1172V16.0283Z" fill="white"></path>
</mask>
<g mask="url(#mask2_59:36)">
<path fill-rule="evenodd" clip-rule="evenodd" d="M16.1172 18.5801V27.4017C21.8371 26.244 26.2388 21.9086 26.8121 16.0283L18.6115 16.0723C17.2317 16.0797 16.1172 17.2003 16.1172 18.5801" fill="#FC5739"></path>
</g>
<path fill-rule="evenodd" clip-rule="evenodd" d="M48.3246 16.7806C47.9938 17.6711 47.5063 18.3736 46.8598 18.8858C45.9858 19.5785 44.9386 19.9254 43.7177 19.9254C42.2331 19.9254 40.9753 19.3971 39.9442 18.3415C38.9132 17.2854 38.3975 15.9737 38.3975 14.4069C38.3975 12.8402 38.909 11.5326 39.9316 10.4849C40.9543 9.43776 42.2165 8.91367 43.7177 8.91367C44.9218 8.91367 45.9648 9.25987 46.848 9.95329C47.4974 10.4629 47.9866 11.1574 48.319 12.0332H51.8583C51.435 10.1171 50.4886 8.59299 49.0128 7.46619C47.5114 6.3199 45.7464 5.74658 43.7177 5.74658C41.276 5.74658 39.2139 6.58362 37.5317 8.25804C35.8491 9.93229 35.0078 11.982 35.0078 14.4069C35.0078 16.8485 35.8491 18.9017 37.5317 20.5684C39.2139 22.2344 41.276 23.0673 43.7177 23.0673C45.7632 23.0673 47.5366 22.482 49.0378 21.3107C50.4532 20.2061 51.3712 18.6928 51.8034 16.7806H48.3246Z" fill="#2F2F96"></path>
<path fill-rule="evenodd" clip-rule="evenodd" d="M93.4363 18.5887C92.8438 19.5734 91.931 20.0729 90.6887 20.0729C89.6658 20.0729 88.837 19.7471 88.2022 19.0956C87.5668 18.444 87.2493 17.5909 87.2493 16.5344C87.2493 15.479 87.5668 14.6208 88.2022 13.9617C88.837 13.3017 89.6658 12.9718 90.6887 12.9718C91.9441 12.9718 92.8323 13.4707 93.3616 14.4559H96.8491C96.4314 13.1223 95.6704 12.0445 94.5613 11.227C93.4309 10.394 92.1405 9.97754 90.6887 9.97754C88.8414 9.97754 87.2778 10.592 85.9999 11.8206C84.721 13.0499 84.082 14.6208 84.082 16.5344C84.082 18.4482 84.721 20.0158 85.9999 21.236C87.2778 22.4567 88.8414 23.0672 90.6887 23.0672C92.1731 23.0672 93.4889 22.6466 94.6352 21.8051C95.7405 20.9943 96.47 19.9204 96.8313 18.5887H93.4363Z" fill="#2F2F96"></path>
</svg>