<svg width="128" height="32" viewBox="0 0 128 32" fill="none" xmlns="http://www.w3.org/2000/svg">
<g clip-path="url(#clip0_402_1856)">
<path d="M123.451 15.9601V16C123.457 17.4844 123.18 18.9568 122.636 20.3422C122.104 21.7066 121.31 22.9585 120.296 24.0299C119.252 25.1342 117.983 26.0113 116.57 26.6041C113.419 27.8597 109.89 27.8597 106.739 26.6041C105.328 26.0097 104.061 25.1328 103.017 24.0299C102.002 22.9586 101.207 21.7068 100.673 20.3422C100.13 18.9564 99.8541 17.4842 99.8581 16C99.8484 14.4724 100.125 12.9561 100.673 11.5261C101.197 10.1617 101.994 8.91338 103.017 7.85433C104.064 6.77538 105.332 5.92533 106.739 5.35994C108.299 4.73973 109.971 4.43299 111.655 4.45797H111.858V0.107757H111.793C109.339 0.0511001 106.901 0.515383 104.648 1.4687C102.728 2.30464 101.011 3.52875 99.6095 5.06061C98.2923 6.51323 97.2724 8.20008 96.6053 10.0294C95.9613 11.7617 95.6276 13.5898 95.6189 15.4333V16.3392C95.6389 18.0993 95.9656 19.8432 96.5849 21.4956C97.2551 23.3291 98.25 25.0327 99.5238 26.5283C100.893 28.1359 102.606 29.4301 104.542 30.3198C106.837 31.2767 109.306 31.7707 111.8 31.772C114.295 31.7734 116.765 31.2822 119.061 30.3278C120.996 29.4369 122.708 28.1429 124.079 26.5363C125.353 25.0407 126.347 23.3371 127.018 21.5036C127.637 19.8512 127.964 18.1073 127.984 16.3472V15.9481L123.451 15.9601Z" fill="white"/>
<path d="M4.35743 0H0V31.6967H4.35743H17.8699V27.8653H4.35743V0Z" fill="white"/>
<path d="M25.7003 8.67249H21.4325V31.6967H25.7003V8.67249Z" fill="white"/>
<path d="M25.7003 2.43851H21.4325V6.61711H25.7003V2.43851Z" fill="white"/>
<path d="M46.0322 8.67249L40.1218 28.4201H39.168L32.3811 8.67249H27.9381L36.0293 31.6967H37.0932H39.1394H40.2971H42.2536H43.1871L50.2103 8.67249H46.0322Z" fill="white"/>
<path d="M67.0123 9.84186C65.3818 8.79621 63.3437 8.51284 60.8491 8.51284C58.9292 8.51284 57.2621 8.60065 55.8477 9.25518C54.4925 9.86695 53.2957 10.77 52.3462 11.8972C51.4337 12.9959 50.7422 14.254 50.3081 15.6049C49.8645 16.9743 49.6404 18.4027 49.6437 19.8394V20.5937C49.6426 22.0157 49.8667 23.4294 50.3081 24.7842C50.7414 26.1354 51.4331 27.3936 52.3462 28.4919C53.3113 29.6332 54.5298 30.5437 55.9088 31.1539C57.3722 31.8244 59.1045 32 61.1059 32C62.9117 32 64.5299 31.8683 65.9606 31.2816C67.3441 30.7273 68.5675 29.8488 69.5232 28.7234C70.4874 27.5705 71.138 26.1976 71.4146 24.7324H67.5504C67.2527 25.863 66.5232 26.8388 65.5123 27.4582C64.3845 28.2405 62.9171 28.6316 61.11 28.6316C59.6109 28.6941 58.1276 28.3115 56.8545 27.534C55.7399 26.7945 54.879 25.7429 54.3843 24.5168C53.9379 23.4107 53.679 22.2405 53.618 21.0526H71.8018V19.1529C71.8118 17.3289 71.4081 15.5254 70.6197 13.8728C69.826 12.2252 68.5762 10.8287 67.0123 9.84186ZM56.7892 12.883C58.0007 12.1169 59.4244 11.7363 60.8654 11.7935C62.2356 11.7408 63.5925 12.0747 64.7745 12.7553C65.8107 13.4053 66.6198 14.3492 67.0938 15.4612C67.3965 16.1835 67.6007 16.9417 67.7012 17.7161H53.8422C53.9656 17.0798 54.1527 16.4568 54.4006 15.8563C54.8818 14.6573 55.7125 13.6234 56.7892 12.883V12.883Z" fill="white"/>
<path d="M79.5425 17.8638H92.6107V14.0324H79.5425V4.3582H93.9477V0.0478935H79.5425H78.6539H75.185V31.6967H78.6539H94.392V27.5261H79.5425V17.8638Z" fill="white"/>
<path d="M128 0.103767H119.187V8.73235H128V0.103767Z" fill="white"/>
<path d="M124.678 3.48017H115.865V12.1088H124.678V3.48017Z" fill="#00A45C"/>
</g>
<defs>
<clipPath id="clip0_402_1856">
<rect width="128" height="32" fill="white"/>
</clipPath>
</defs>
</svg>
