
<svg version="1.1" id="Ebene_1" xmlns="http://www.w3.org/2000/svg" xmlns:xlink="http://www.w3.org/1999/xlink" x="0px" y="0px"
	 viewBox="0 0 64 43" style="enable-background:new 0 0 64 43;" xml:space="preserve">
<style type="text/css">
	.st0{fill:none;}
	.st1{clip-path:url(#SVGID_2_);fill:#FFFFFF;}
	.st2{clip-path:url(#SVGID_4_);fill:url(#SVGID_5_);}
	.st3{clip-path:url(#SVGID_7_);fill:#FFFFFF;}
	.st4{clip-path:url(#SVGID_9_);fill:url(#SVGID_10_);}
	.st5{fill:#0073A3;}
</style>
<line class="st0" x1="783" y1="189" x2="787" y2="189"/>
<g>
	<defs>
		<rect id="SVGID_1_" x="0.7" y="0.7" width="62.4" height="41.5"/>
	</defs>
	<clipPath id="SVGID_2_">
		<use xlink:href="#SVGID_1_"  style="overflow:visible;"/>
	</clipPath>
	<path class="st1" d="M63.1,40.9V5.7h0c0-2.7-2.4-4.9-5.3-4.9c-1.4,0-2.6,0.5-3.6,1.4L31.9,22.2L9.6,2.1C8.6,1.2,7.4,0.7,6,0.7
		c-2.9,0-5.3,2.2-5.3,4.9h0v35.2c0,0.7,0.6,1.3,1.3,1.3h7.3c0.7,0,1.3-0.6,1.3-1.3V15.7l14,13l-6.6,5.9c-0.4,0.4-0.4,1,0,1.4
		l5.6,5.5c0.4,0.4,1,0.4,1.4,0l6.8-6.3l6.8,6.3c0.4,0.4,1,0.3,1.4,0l5.6-5.5c0.4-0.4,0.4-1.1,0-1.4l-6.6-5.9l14-13v25.2
		c0,0.7,0.6,1.3,1.3,1.3h7.3C62.5,42.2,63.1,41.6,63.1,40.9"/>
	<path class="st1" d="M63.1,40.9V5.7h0c0-2.7-2.4-4.9-5.3-4.9c-1.4,0-2.6,0.5-3.6,1.4l-29,26.2l0,0l-7,6.3c-0.4,0.4-0.4,1,0,1.4
		l5.6,5.5c0.4,0.4,1,0.4,1.4,0l28-25.9v25.2c0,0.7,0.6,1.3,1.3,1.3h7.3C62.5,42.2,63.1,41.6,63.1,40.9"/>
</g>
<g>
	<defs>
		<path id="SVGID_3_" d="M54.2,2.1l-29,26.2l0,0l-7,6.3c-0.4,0.4-0.4,1,0,1.4l5.6,5.5c0.4,0.4,1,0.4,1.4,0l28-25.9v25.2
			c0,0.7,0.6,1.3,1.3,1.3h7.3c0.7,0,1.3-0.6,1.3-1.3V5.7h0c0-2.7-2.4-4.9-5.3-4.9C56.4,0.7,55.2,1.2,54.2,2.1"/>
	</defs>
	<clipPath id="SVGID_4_">
		<use xlink:href="#SVGID_3_"  style="overflow:visible;"/>
	</clipPath>
	
		<linearGradient id="SVGID_5_" gradientUnits="userSpaceOnUse" x1="-641.0565" y1="411.3994" x2="-640.0565" y2="411.3994" gradientTransform="matrix(72.7594 0 0 -72.7594 46660.5117 29954.668)">
		<stop  offset="0" style="stop-color:#009FE3"/>
		<stop  offset="0.2487" style="stop-color:#009FE3"/>
		<stop  offset="0.7455" style="stop-color:#0079C2"/>
		<stop  offset="1" style="stop-color:#0079C2"/>
	</linearGradient>
	<rect x="17.7" y="0.7" class="st2" width="45.4" height="41.5"/>
</g>
<g>
	<defs>
		<rect id="SVGID_6_" x="0.7" y="0.7" width="62.4" height="41.5"/>
	</defs>
	<clipPath id="SVGID_7_">
		<use xlink:href="#SVGID_6_"  style="overflow:visible;"/>
	</clipPath>
	<path class="st3" d="M0.7,40.9V5.7h0c0-2.7,2.4-4.9,5.3-4.9c1.4,0,2.6,0.5,3.6,1.4l29,26.2l0,0l7,6.3c0.4,0.4,0.4,1,0,1.4l-5.6,5.5
		c-0.4,0.4-1,0.4-1.4,0l-28-25.9v25.2c0,0.7-0.6,1.3-1.3,1.3H2.1C1.3,42.2,0.7,41.6,0.7,40.9"/>
</g>
<g>
	<defs>
		<path id="SVGID_8_" d="M0.7,5.7L0.7,5.7l0,35.2c0,0.7,0.6,1.3,1.3,1.3h7.3c0.7,0,1.3-0.6,1.3-1.3V15.7l28,25.9
			c0.4,0.4,1,0.3,1.4,0l5.6-5.5c0.4-0.4,0.4-1.1,0-1.4l-7-6.3l0,0L9.6,2.1C8.6,1.2,7.4,0.7,6,0.7C3.1,0.7,0.7,2.9,0.7,5.7"/>
	</defs>
	<clipPath id="SVGID_9_">
		<use xlink:href="#SVGID_8_"  style="overflow:visible;"/>
	</clipPath>
	
		<linearGradient id="SVGID_10_" gradientUnits="userSpaceOnUse" x1="-662.1822" y1="413.3352" x2="-661.1822" y2="413.3352" gradientTransform="matrix(-53.4158 0 0 -53.4158 -35323.8242 22100.1035)">
		<stop  offset="0" style="stop-color:#7FA9BE"/>
		<stop  offset="1.307690e-02" style="stop-color:#7FA9BE"/>
		<stop  offset="0.9891" style="stop-color:#2B748F"/>
		<stop  offset="1" style="stop-color:#2B748F"/>
	</linearGradient>
	<rect x="0.7" y="0.7" class="st4" width="45.4" height="41.5"/>
</g>
<polygon class="st5" points="38.6,28.3 31.9,22.2 25.2,28.3 25.2,28.3 24.7,28.7 31.9,35.3 39.1,28.7 38.6,28.3 "/>
</svg>
