<svg xmlns="http://www.w3.org/2000/svg" width="188" height="38" viewBox="0 0 188 38" id="svg-replaced-0"
    class="custom-logo style-svg replaced-svg svg-replaced-0">
    <path fill="currentColor"
        d="M188 18.511v-8.9a21.542 21.542 0 00-3.59-.271c-6.31 0-10.878 3.42-12.4 8.74v-8.034h-9.192V37.19h10.5v-8.8c0-3.2.87-5.971 2.883-7.817 1.578-1.574 4.08-2.5 7.452-2.5a22.761 22.761 0 014.352.434m-40.038 19.438a21.848 21.848 0 008.322-1.249v-7.328a22.455 22.455 0 01-5.6.706c-4.46 0-7.095-1.737-7.095-5.592v-7.871h12.7v-6.568h-12.7V0h-9.586v10.042h-8.5v6.568h8.5v9.88c0 7.872 4.6 11.454 13.955 11.454m-51.292-20.52c0-1.628 2.23-2.334 7.017-2.334 7.017 0 11.477 1.14 15.175 3.746l4.188-4.94c-4.3-3.312-10.443-4.886-18.439-4.886-11.639 0-17.569 2.986-17.569 8.957 0 4.995 3.644 7.654 11.532 8.36l11.749.978c2.774.217 3.644.814 3.644 2.171 0 1.791-1.958 2.551-6.8 2.551-8.431 0-13.489-1.792-17.025-4.995l-5.059 4.777c4.406 4.234 11.205 6.406 21.1 6.406 11.912 0 17.46-3.475 17.46-9.663 0-4.941-3.209-7.437-11.205-8.089l-11.966-.923c-2.72-.217-3.808-.814-3.808-2.118M52.617 25.89h30.3v-1.516c0-9.609-7.4-15.363-20.234-15.363-12.239 0-20.18 5.429-20.18 14.711 0 9.12 7.669 14.495 20.452 14.495 8.757 0 15.121-2.552 18.928-7.111l-8.05-3.475c-2.013 2.5-5.929 4.017-10.443 4.017-6.146 0-9.954-2.117-10.77-5.754m-.055-5.428c.652-3.529 4.3-5.809 10.063-5.809 5.711 0 9.736 2.389 9.845 5.809zM16.161 37.325h12.163L44.483 9.611H32.767l-8.884 16.407a26.067 26.067 0 00-1.5 3.161h-.279a26.067 26.067 0 00-1.5-3.159L11.718 9.611H0z">
    </path>
</svg>